<mxfile host="Electron" modified="2024-03-16T07:39:12.464Z" agent="Mozilla/5.0 (Windows NT 10.0; Win64; x64) AppleWebKit/537.36 (KHTML, like Gecko) draw.io/24.0.4 Chrome/120.0.6099.109 Electron/28.1.0 Safari/537.36" etag="rpcTelwjuClDElrYqUun" version="24.0.4" type="device">
  <diagram id="C5RBs43oDa-KdzZeNtuy" name="Page-1">
    <mxGraphModel dx="994" dy="676" grid="1" gridSize="10" guides="1" tooltips="1" connect="1" arrows="1" fold="1" page="1" pageScale="1" pageWidth="1169" pageHeight="1654" math="0" shadow="0">
      <root>
        <mxCell id="WIyWlLk6GJQsqaUBKTNV-0" />
        <mxCell id="WIyWlLk6GJQsqaUBKTNV-1" parent="WIyWlLk6GJQsqaUBKTNV-0" />
        <mxCell id="vOvHCYOqFdmL3Q4cGMV2-38" value="" style="endArrow=oval;html=1;rounded=0;fillColor=#fa6800;strokeColor=#C73500;endFill=1;startArrow=block;startFill=0;dashed=1;exitX=0.645;exitY=1.037;exitDx=0;exitDy=0;exitPerimeter=0;" parent="WIyWlLk6GJQsqaUBKTNV-1" source="kU64lX1X_HIVFnXj1w8X-65" edge="1">
          <mxGeometry width="50" height="50" relative="1" as="geometry">
            <mxPoint x="920" y="344.8717792217548" as="sourcePoint" />
            <mxPoint x="520" y="908" as="targetPoint" />
            <Array as="points">
              <mxPoint x="920" y="1020" />
              <mxPoint x="520" y="1020" />
            </Array>
          </mxGeometry>
        </mxCell>
        <mxCell id="vOvHCYOqFdmL3Q4cGMV2-37" value="" style="endArrow=oval;html=1;rounded=0;fillColor=#fa6800;strokeColor=#C73500;endFill=1;startArrow=none;startFill=0;dashed=1;" parent="WIyWlLk6GJQsqaUBKTNV-1" edge="1">
          <mxGeometry width="50" height="50" relative="1" as="geometry">
            <mxPoint x="520" y="1020" as="sourcePoint" />
            <mxPoint x="200" y="988" as="targetPoint" />
            <Array as="points">
              <mxPoint x="200" y="1020" />
            </Array>
          </mxGeometry>
        </mxCell>
        <mxCell id="vOvHCYOqFdmL3Q4cGMV2-30" value="" style="endArrow=none;html=1;rounded=0;fillColor=#fa6800;strokeColor=#C73500;startArrow=block;startFill=0;exitX=0.472;exitY=1.11;exitDx=0;exitDy=0;exitPerimeter=0;entryX=0.008;entryY=0.453;entryDx=0;entryDy=0;entryPerimeter=0;" parent="WIyWlLk6GJQsqaUBKTNV-1" source="kU64lX1X_HIVFnXj1w8X-26" target="vOvHCYOqFdmL3Q4cGMV2-9" edge="1">
          <mxGeometry width="50" height="50" relative="1" as="geometry">
            <mxPoint x="220" y="360" as="sourcePoint" />
            <mxPoint x="540" y="908" as="targetPoint" />
            <Array as="points">
              <mxPoint x="220" y="650" />
              <mxPoint x="520" y="650" />
              <mxPoint x="520" y="908" />
            </Array>
          </mxGeometry>
        </mxCell>
        <mxCell id="oHZwISHsFdIdbKGNgW1y-18" value="" style="endArrow=block;html=1;rounded=0;endFill=0;fillColor=#1ba1e2;strokeColor=#006EAF;exitX=-0.007;exitY=0.047;exitDx=0;exitDy=0;exitPerimeter=0;" parent="WIyWlLk6GJQsqaUBKTNV-1" source="kU64lX1X_HIVFnXj1w8X-4" target="oHZwISHsFdIdbKGNgW1y-10" edge="1">
          <mxGeometry width="50" height="50" relative="1" as="geometry">
            <mxPoint x="150" y="150" as="sourcePoint" />
            <mxPoint x="229" y="432" as="targetPoint" />
            <Array as="points">
              <mxPoint x="140" y="150" />
              <mxPoint x="140" y="440" />
              <mxPoint x="480" y="440" />
              <mxPoint x="480" y="580" />
              <mxPoint x="530" y="580" />
              <mxPoint x="530" y="730" />
            </Array>
          </mxGeometry>
        </mxCell>
        <mxCell id="kU64lX1X_HIVFnXj1w8X-131" value="Yes" style="rounded=0;html=1;jettySize=auto;orthogonalLoop=1;fontSize=11;endArrow=none;endFill=0;endSize=8;strokeWidth=1;shadow=0;labelBackgroundColor=none;edgeStyle=orthogonalEdgeStyle;fillColor=#fa6800;strokeColor=#C73500;exitX=0;exitY=0.5;exitDx=0;exitDy=0;" parent="WIyWlLk6GJQsqaUBKTNV-1" source="kU64lX1X_HIVFnXj1w8X-130" edge="1">
          <mxGeometry x="-0.9883" y="10" relative="1" as="geometry">
            <mxPoint as="offset" />
            <mxPoint x="790" y="760" as="sourcePoint" />
            <mxPoint x="490" y="430" as="targetPoint" />
            <Array as="points">
              <mxPoint x="830" y="760" />
              <mxPoint x="830" y="590" />
              <mxPoint x="490" y="590" />
            </Array>
          </mxGeometry>
        </mxCell>
        <mxCell id="kU64lX1X_HIVFnXj1w8X-139" value="" style="endArrow=none;html=1;rounded=0;fillColor=#fa6800;strokeColor=#C73500;endFill=0;startArrow=oval;startFill=1;dashed=1;" parent="WIyWlLk6GJQsqaUBKTNV-1" edge="1">
          <mxGeometry width="50" height="50" relative="1" as="geometry">
            <mxPoint x="830" y="590" as="sourcePoint" />
            <mxPoint x="887" y="430" as="targetPoint" />
            <Array as="points">
              <mxPoint x="887" y="590" />
            </Array>
          </mxGeometry>
        </mxCell>
        <mxCell id="WIyWlLk6GJQsqaUBKTNV-2" value="" style="rounded=0;html=1;jettySize=auto;orthogonalLoop=1;fontSize=11;endArrow=classic;endFill=1;endSize=8;strokeWidth=1;shadow=0;labelBackgroundColor=none;edgeStyle=orthogonalEdgeStyle;" parent="WIyWlLk6GJQsqaUBKTNV-1" source="WIyWlLk6GJQsqaUBKTNV-3" target="WIyWlLk6GJQsqaUBKTNV-6" edge="1">
          <mxGeometry relative="1" as="geometry" />
        </mxCell>
        <mxCell id="WIyWlLk6GJQsqaUBKTNV-3" value="Launch" style="rounded=1;whiteSpace=wrap;html=1;fontSize=12;glass=0;strokeWidth=1;shadow=0;" parent="WIyWlLk6GJQsqaUBKTNV-1" vertex="1">
          <mxGeometry x="562.12" y="40" width="120" height="40" as="geometry" />
        </mxCell>
        <mxCell id="WIyWlLk6GJQsqaUBKTNV-4" value="Yes" style="rounded=0;html=1;jettySize=auto;orthogonalLoop=1;fontSize=11;endArrow=classic;endFill=1;endSize=8;strokeWidth=1;shadow=0;labelBackgroundColor=none;edgeStyle=orthogonalEdgeStyle;" parent="WIyWlLk6GJQsqaUBKTNV-1" source="WIyWlLk6GJQsqaUBKTNV-6" edge="1">
          <mxGeometry x="-0.5055" y="24" relative="1" as="geometry">
            <mxPoint as="offset" />
            <mxPoint x="622.12" y="250" as="targetPoint" />
          </mxGeometry>
        </mxCell>
        <mxCell id="WIyWlLk6GJQsqaUBKTNV-5" value="No" style="edgeStyle=orthogonalEdgeStyle;rounded=0;html=1;jettySize=auto;orthogonalLoop=1;fontSize=11;endArrow=classic;endFill=1;endSize=8;strokeWidth=1;shadow=0;labelBackgroundColor=none;" parent="WIyWlLk6GJQsqaUBKTNV-1" source="WIyWlLk6GJQsqaUBKTNV-6" target="WIyWlLk6GJQsqaUBKTNV-7" edge="1">
          <mxGeometry x="-0.3411" y="-10" relative="1" as="geometry">
            <mxPoint as="offset" />
          </mxGeometry>
        </mxCell>
        <mxCell id="WIyWlLk6GJQsqaUBKTNV-6" value="Does a&lt;div&gt;user exist?&lt;/div&gt;" style="rhombus;whiteSpace=wrap;html=1;shadow=0;fontFamily=Helvetica;fontSize=12;align=center;strokeWidth=1;spacing=6;spacingTop=-4;" parent="WIyWlLk6GJQsqaUBKTNV-1" vertex="1">
          <mxGeometry x="572.12" y="130" width="100" height="80" as="geometry" />
        </mxCell>
        <mxCell id="kU64lX1X_HIVFnXj1w8X-55" value="" style="edgeStyle=orthogonalEdgeStyle;rounded=0;orthogonalLoop=1;jettySize=auto;html=1;" parent="WIyWlLk6GJQsqaUBKTNV-1" source="WIyWlLk6GJQsqaUBKTNV-7" edge="1">
          <mxGeometry relative="1" as="geometry">
            <mxPoint x="682.37" y="270" as="targetPoint" />
            <Array as="points">
              <mxPoint x="762.37" y="270" />
            </Array>
          </mxGeometry>
        </mxCell>
        <mxCell id="WIyWlLk6GJQsqaUBKTNV-7" value="Create New User&lt;div&gt;Screen&lt;/div&gt;" style="rounded=1;whiteSpace=wrap;html=1;fontSize=12;glass=0;strokeWidth=1;shadow=0;" parent="WIyWlLk6GJQsqaUBKTNV-1" vertex="1">
          <mxGeometry x="710" y="150" width="120" height="40" as="geometry" />
        </mxCell>
        <mxCell id="kU64lX1X_HIVFnXj1w8X-32" value="" style="edgeStyle=orthogonalEdgeStyle;rounded=0;orthogonalLoop=1;jettySize=auto;html=1;" parent="WIyWlLk6GJQsqaUBKTNV-1" source="WIyWlLk6GJQsqaUBKTNV-12" target="kU64lX1X_HIVFnXj1w8X-31" edge="1">
          <mxGeometry relative="1" as="geometry" />
        </mxCell>
        <mxCell id="WIyWlLk6GJQsqaUBKTNV-12" value="Log In Screen" style="rounded=1;whiteSpace=wrap;html=1;fontSize=12;glass=0;strokeWidth=1;shadow=0;" parent="WIyWlLk6GJQsqaUBKTNV-1" vertex="1">
          <mxGeometry x="562.12" y="250" width="120" height="40" as="geometry" />
        </mxCell>
        <mxCell id="kU64lX1X_HIVFnXj1w8X-0" value="SQLite3" style="shape=cylinder3;whiteSpace=wrap;html=1;boundedLbl=1;backgroundOutline=1;size=15;" parent="WIyWlLk6GJQsqaUBKTNV-1" vertex="1">
          <mxGeometry x="240.75" y="40" width="115.5" height="80" as="geometry" />
        </mxCell>
        <mxCell id="kU64lX1X_HIVFnXj1w8X-4" value="Passwords" style="swimlane;fontStyle=0;childLayout=stackLayout;horizontal=1;startSize=30;horizontalStack=0;resizeParent=1;resizeParentMax=0;resizeLast=0;collapsible=1;marginBottom=0;whiteSpace=wrap;html=1;" parent="WIyWlLk6GJQsqaUBKTNV-1" vertex="1">
          <mxGeometry x="158.75" y="140" width="130" height="210" as="geometry">
            <mxRectangle x="178.75" y="150" width="60" height="30" as="alternateBounds" />
          </mxGeometry>
        </mxCell>
        <mxCell id="kU64lX1X_HIVFnXj1w8X-5" value="user&amp;nbsp; &amp;nbsp; &amp;nbsp;ðŸ”‘" style="text;strokeColor=none;fillColor=none;align=left;verticalAlign=middle;spacingLeft=4;spacingRight=4;overflow=hidden;points=[[0,0.5],[1,0.5]];portConstraint=eastwest;rotatable=0;whiteSpace=wrap;html=1;" parent="kU64lX1X_HIVFnXj1w8X-4" vertex="1">
          <mxGeometry y="30" width="130" height="30" as="geometry" />
        </mxCell>
        <mxCell id="kU64lX1X_HIVFnXj1w8X-6" value="account" style="text;strokeColor=none;fillColor=none;align=left;verticalAlign=middle;spacingLeft=4;spacingRight=4;overflow=hidden;points=[[0,0.5],[1,0.5]];portConstraint=eastwest;rotatable=0;whiteSpace=wrap;html=1;" parent="kU64lX1X_HIVFnXj1w8X-4" vertex="1">
          <mxGeometry y="60" width="130" height="30" as="geometry" />
        </mxCell>
        <mxCell id="kU64lX1X_HIVFnXj1w8X-7" value="username" style="text;strokeColor=none;fillColor=none;align=left;verticalAlign=middle;spacingLeft=4;spacingRight=4;overflow=hidden;points=[[0,0.5],[1,0.5]];portConstraint=eastwest;rotatable=0;whiteSpace=wrap;html=1;" parent="kU64lX1X_HIVFnXj1w8X-4" vertex="1">
          <mxGeometry y="90" width="130" height="30" as="geometry" />
        </mxCell>
        <mxCell id="kU64lX1X_HIVFnXj1w8X-24" value="password" style="text;strokeColor=none;fillColor=none;align=left;verticalAlign=middle;spacingLeft=4;spacingRight=4;overflow=hidden;points=[[0,0.5],[1,0.5]];portConstraint=eastwest;rotatable=0;whiteSpace=wrap;html=1;" parent="kU64lX1X_HIVFnXj1w8X-4" vertex="1">
          <mxGeometry y="120" width="130" height="30" as="geometry" />
        </mxCell>
        <mxCell id="kU64lX1X_HIVFnXj1w8X-25" value="pw_key" style="text;strokeColor=none;fillColor=none;align=left;verticalAlign=middle;spacingLeft=4;spacingRight=4;overflow=hidden;points=[[0,0.5],[1,0.5]];portConstraint=eastwest;rotatable=0;whiteSpace=wrap;html=1;" parent="kU64lX1X_HIVFnXj1w8X-4" vertex="1">
          <mxGeometry y="150" width="130" height="30" as="geometry" />
        </mxCell>
        <mxCell id="kU64lX1X_HIVFnXj1w8X-26" value="last_modified" style="text;strokeColor=none;fillColor=none;align=left;verticalAlign=middle;spacingLeft=4;spacingRight=4;overflow=hidden;points=[[0,0.5],[1,0.5]];portConstraint=eastwest;rotatable=0;whiteSpace=wrap;html=1;" parent="kU64lX1X_HIVFnXj1w8X-4" vertex="1">
          <mxGeometry y="180" width="130" height="30" as="geometry" />
        </mxCell>
        <mxCell id="kU64lX1X_HIVFnXj1w8X-8" value="Users" style="swimlane;fontStyle=0;childLayout=stackLayout;horizontal=1;startSize=30;horizontalStack=0;resizeParent=1;resizeParentMax=0;resizeLast=0;collapsible=1;marginBottom=0;whiteSpace=wrap;html=1;" parent="WIyWlLk6GJQsqaUBKTNV-1" vertex="1">
          <mxGeometry x="308.25" y="140" width="130" height="180" as="geometry">
            <mxRectangle x="560" y="150" width="60" height="30" as="alternateBounds" />
          </mxGeometry>
        </mxCell>
        <mxCell id="kU64lX1X_HIVFnXj1w8X-9" value="user&amp;nbsp; &amp;nbsp; &amp;nbsp;ðŸ”‘" style="text;strokeColor=none;fillColor=none;align=left;verticalAlign=middle;spacingLeft=4;spacingRight=4;overflow=hidden;points=[[0,0.5],[1,0.5]];portConstraint=eastwest;rotatable=0;whiteSpace=wrap;html=1;" parent="kU64lX1X_HIVFnXj1w8X-8" vertex="1">
          <mxGeometry y="30" width="130" height="30" as="geometry" />
        </mxCell>
        <mxCell id="kU64lX1X_HIVFnXj1w8X-10" value="master_pw" style="text;strokeColor=none;fillColor=none;align=left;verticalAlign=middle;spacingLeft=4;spacingRight=4;overflow=hidden;points=[[0,0.5],[1,0.5]];portConstraint=eastwest;rotatable=0;whiteSpace=wrap;html=1;" parent="kU64lX1X_HIVFnXj1w8X-8" vertex="1">
          <mxGeometry y="60" width="130" height="30" as="geometry" />
        </mxCell>
        <mxCell id="kU64lX1X_HIVFnXj1w8X-11" value="master_key" style="text;strokeColor=none;fillColor=none;align=left;verticalAlign=middle;spacingLeft=4;spacingRight=4;overflow=hidden;points=[[0,0.5],[1,0.5]];portConstraint=eastwest;rotatable=0;whiteSpace=wrap;html=1;" parent="kU64lX1X_HIVFnXj1w8X-8" vertex="1">
          <mxGeometry y="90" width="130" height="30" as="geometry" />
        </mxCell>
        <mxCell id="kU64lX1X_HIVFnXj1w8X-20" value="master_last_modified" style="text;strokeColor=none;fillColor=none;align=left;verticalAlign=middle;spacingLeft=4;spacingRight=4;overflow=hidden;points=[[0,0.5],[1,0.5]];portConstraint=eastwest;rotatable=0;whiteSpace=wrap;html=1;" parent="kU64lX1X_HIVFnXj1w8X-8" vertex="1">
          <mxGeometry y="120" width="130" height="30" as="geometry" />
        </mxCell>
        <mxCell id="kU64lX1X_HIVFnXj1w8X-23" value="last_locked" style="text;strokeColor=none;fillColor=none;align=left;verticalAlign=middle;spacingLeft=4;spacingRight=4;overflow=hidden;points=[[0,0.5],[1,0.5]];portConstraint=eastwest;rotatable=0;whiteSpace=wrap;html=1;" parent="kU64lX1X_HIVFnXj1w8X-8" vertex="1">
          <mxGeometry y="150" width="130" height="30" as="geometry" />
        </mxCell>
        <mxCell id="kU64lX1X_HIVFnXj1w8X-31" value="User and&lt;div&gt;password&lt;/div&gt;&lt;div&gt;match?&lt;/div&gt;" style="rhombus;whiteSpace=wrap;html=1;shadow=0;fontFamily=Helvetica;fontSize=12;align=center;strokeWidth=1;spacing=6;spacingTop=-4;" parent="WIyWlLk6GJQsqaUBKTNV-1" vertex="1">
          <mxGeometry x="559.87" y="330" width="124.5" height="80" as="geometry" />
        </mxCell>
        <mxCell id="kU64lX1X_HIVFnXj1w8X-34" value="Yes" style="rounded=0;html=1;jettySize=auto;orthogonalLoop=1;fontSize=11;endArrow=classic;endFill=1;endSize=8;strokeWidth=1;shadow=0;labelBackgroundColor=none;edgeStyle=orthogonalEdgeStyle;" parent="WIyWlLk6GJQsqaUBKTNV-1" edge="1">
          <mxGeometry x="-0.4997" y="24" relative="1" as="geometry">
            <mxPoint as="offset" />
            <mxPoint x="622.12" y="410" as="sourcePoint" />
            <mxPoint x="622.12" y="450" as="targetPoint" />
          </mxGeometry>
        </mxCell>
        <mxCell id="kU64lX1X_HIVFnXj1w8X-35" value="No" style="edgeStyle=orthogonalEdgeStyle;rounded=0;html=1;jettySize=auto;orthogonalLoop=1;fontSize=11;endArrow=classic;endFill=1;endSize=8;strokeWidth=1;shadow=0;labelBackgroundColor=none;entryX=0;entryY=0.5;entryDx=0;entryDy=0;exitX=0;exitY=0.5;exitDx=0;exitDy=0;" parent="WIyWlLk6GJQsqaUBKTNV-1" source="kU64lX1X_HIVFnXj1w8X-31" target="WIyWlLk6GJQsqaUBKTNV-12" edge="1">
          <mxGeometry x="-1" y="20" relative="1" as="geometry">
            <mxPoint as="offset" />
            <mxPoint x="557.62" y="370" as="sourcePoint" />
            <mxPoint x="487.62" y="370" as="targetPoint" />
            <Array as="points">
              <mxPoint x="541.62" y="370" />
              <mxPoint x="541.62" y="270" />
            </Array>
          </mxGeometry>
        </mxCell>
        <mxCell id="kU64lX1X_HIVFnXj1w8X-38" value="Is user&amp;nbsp;&lt;div&gt;locked out?&lt;/div&gt;" style="rhombus;whiteSpace=wrap;html=1;shadow=0;fontFamily=Helvetica;fontSize=12;align=center;strokeWidth=1;spacing=6;spacingTop=-4;" parent="WIyWlLk6GJQsqaUBKTNV-1" vertex="1">
          <mxGeometry x="566.62" y="450" width="111" height="80" as="geometry" />
        </mxCell>
        <mxCell id="kU64lX1X_HIVFnXj1w8X-39" value="No" style="rounded=0;html=1;jettySize=auto;orthogonalLoop=1;fontSize=11;endArrow=classic;endFill=1;endSize=8;strokeWidth=1;shadow=0;labelBackgroundColor=none;edgeStyle=orthogonalEdgeStyle;entryX=0.5;entryY=0;entryDx=0;entryDy=0;" parent="WIyWlLk6GJQsqaUBKTNV-1" target="kU64lX1X_HIVFnXj1w8X-49" edge="1">
          <mxGeometry x="-0.7074" y="24" relative="1" as="geometry">
            <mxPoint as="offset" />
            <mxPoint x="622.12" y="530" as="sourcePoint" />
            <mxPoint x="622.12" y="570" as="targetPoint" />
          </mxGeometry>
        </mxCell>
        <mxCell id="kU64lX1X_HIVFnXj1w8X-40" value="Yes" style="edgeStyle=orthogonalEdgeStyle;rounded=0;html=1;jettySize=auto;orthogonalLoop=1;fontSize=11;endArrow=classic;endFill=1;endSize=8;strokeWidth=1;shadow=0;labelBackgroundColor=none;" parent="WIyWlLk6GJQsqaUBKTNV-1" target="kU64lX1X_HIVFnXj1w8X-41" edge="1">
          <mxGeometry x="-0.4835" y="-20" relative="1" as="geometry">
            <mxPoint as="offset" />
            <mxPoint x="676" y="490" as="sourcePoint" />
          </mxGeometry>
        </mxCell>
        <mxCell id="kU64lX1X_HIVFnXj1w8X-41" value="Lock Out Screen" style="rounded=1;whiteSpace=wrap;html=1;fontSize=12;glass=0;strokeWidth=1;shadow=0;" parent="WIyWlLk6GJQsqaUBKTNV-1" vertex="1">
          <mxGeometry x="716" y="470" width="120" height="40" as="geometry" />
        </mxCell>
        <mxCell id="kU64lX1X_HIVFnXj1w8X-44" value="Simple Password Manager&lt;div&gt;Process Flowchart&lt;/div&gt;" style="text;strokeColor=none;fillColor=none;html=1;fontSize=24;fontStyle=1;verticalAlign=middle;align=center;rotation=-90;" parent="WIyWlLk6GJQsqaUBKTNV-1" vertex="1">
          <mxGeometry y="190" width="100" height="10" as="geometry" />
        </mxCell>
        <mxCell id="kU64lX1X_HIVFnXj1w8X-48" value="" style="edgeStyle=orthogonalEdgeStyle;rounded=0;orthogonalLoop=1;jettySize=auto;html=1;" parent="WIyWlLk6GJQsqaUBKTNV-1" source="kU64lX1X_HIVFnXj1w8X-41" target="kU64lX1X_HIVFnXj1w8X-47" edge="1">
          <mxGeometry relative="1" as="geometry">
            <mxPoint x="776" y="510" as="sourcePoint" />
            <mxPoint x="776" y="590" as="targetPoint" />
          </mxGeometry>
        </mxCell>
        <mxCell id="kU64lX1X_HIVFnXj1w8X-47" value="Exit" style="rhombus;whiteSpace=wrap;html=1;shadow=0;fontFamily=Helvetica;fontSize=12;align=center;strokeWidth=1;spacing=6;spacingTop=-4;" parent="WIyWlLk6GJQsqaUBKTNV-1" vertex="1">
          <mxGeometry x="749.62" y="530" width="52.75" height="50" as="geometry" />
        </mxCell>
        <mxCell id="kU64lX1X_HIVFnXj1w8X-49" value="Start Menu" style="rounded=1;whiteSpace=wrap;html=1;fontSize=12;glass=0;strokeWidth=1;shadow=0;" parent="WIyWlLk6GJQsqaUBKTNV-1" vertex="1">
          <mxGeometry x="236.01" y="600" width="772.22" height="40" as="geometry" />
        </mxCell>
        <mxCell id="kU64lX1X_HIVFnXj1w8X-65" value="&lt;div&gt;&lt;br&gt;&lt;/div&gt;Logs" style="shape=note;whiteSpace=wrap;html=1;backgroundOutline=1;darkOpacity=0.05;" parent="WIyWlLk6GJQsqaUBKTNV-1" vertex="1">
          <mxGeometry x="870.63" y="240" width="77.63" height="100" as="geometry" />
        </mxCell>
        <mxCell id="kU64lX1X_HIVFnXj1w8X-66" value="No&lt;div&gt;x3&lt;/div&gt;" style="edgeStyle=orthogonalEdgeStyle;rounded=0;html=1;jettySize=auto;orthogonalLoop=1;fontSize=11;endArrow=classic;endFill=1;endSize=8;strokeWidth=1;shadow=0;labelBackgroundColor=none;entryX=0.5;entryY=0;entryDx=0;entryDy=0;exitX=1;exitY=0.5;exitDx=0;exitDy=0;" parent="WIyWlLk6GJQsqaUBKTNV-1" edge="1">
          <mxGeometry x="-0.8121" y="-20" relative="1" as="geometry">
            <mxPoint as="offset" />
            <mxPoint x="684.37" y="370" as="sourcePoint" />
            <mxPoint x="776" y="470" as="targetPoint" />
            <Array as="points">
              <mxPoint x="776.37" y="370" />
            </Array>
          </mxGeometry>
        </mxCell>
        <mxCell id="kU64lX1X_HIVFnXj1w8X-67" value="" style="endArrow=block;html=1;rounded=0;fillColor=#fa6800;strokeColor=#C73500;endFill=0;startArrow=oval;startFill=1;dashed=1;" parent="WIyWlLk6GJQsqaUBKTNV-1" edge="1">
          <mxGeometry width="50" height="50" relative="1" as="geometry">
            <mxPoint x="776.63" y="300" as="sourcePoint" />
            <mxPoint x="870.63" y="300.40999999999997" as="targetPoint" />
          </mxGeometry>
        </mxCell>
        <mxCell id="kU64lX1X_HIVFnXj1w8X-71" value="" style="endArrow=block;html=1;rounded=0;entryX=0.21;entryY=1.002;entryDx=0;entryDy=0;entryPerimeter=0;fillColor=#fa6800;strokeColor=#C73500;endFill=0;startArrow=oval;startFill=1;dashed=1;" parent="WIyWlLk6GJQsqaUBKTNV-1" target="kU64lX1X_HIVFnXj1w8X-65" edge="1">
          <mxGeometry width="50" height="50" relative="1" as="geometry">
            <mxPoint x="740" y="430" as="sourcePoint" />
            <mxPoint x="882.37" y="230" as="targetPoint" />
            <Array as="points">
              <mxPoint x="887" y="430" />
            </Array>
          </mxGeometry>
        </mxCell>
        <mxCell id="kU64lX1X_HIVFnXj1w8X-86" value="" style="edgeStyle=elbowEdgeStyle;rounded=0;orthogonalLoop=1;jettySize=auto;html=1;endArrow=none;endFill=0;dashed=1;" parent="WIyWlLk6GJQsqaUBKTNV-1" source="kU64lX1X_HIVFnXj1w8X-73" target="kU64lX1X_HIVFnXj1w8X-49" edge="1">
          <mxGeometry relative="1" as="geometry" />
        </mxCell>
        <mxCell id="kU64lX1X_HIVFnXj1w8X-103" value="" style="edgeStyle=elbowEdgeStyle;rounded=0;orthogonalLoop=1;jettySize=auto;html=1;" parent="WIyWlLk6GJQsqaUBKTNV-1" source="kU64lX1X_HIVFnXj1w8X-73" target="kU64lX1X_HIVFnXj1w8X-102" edge="1">
          <mxGeometry relative="1" as="geometry" />
        </mxCell>
        <mxCell id="kU64lX1X_HIVFnXj1w8X-73" value="Create&lt;div&gt;Password&lt;/div&gt;" style="rounded=1;whiteSpace=wrap;html=1;" parent="WIyWlLk6GJQsqaUBKTNV-1" vertex="1">
          <mxGeometry x="257.74999999999994" y="660" width="80.25" height="40" as="geometry" />
        </mxCell>
        <mxCell id="kU64lX1X_HIVFnXj1w8X-87" value="" style="edgeStyle=elbowEdgeStyle;rounded=0;orthogonalLoop=1;jettySize=auto;html=1;dashed=1;endArrow=none;endFill=0;" parent="WIyWlLk6GJQsqaUBKTNV-1" source="kU64lX1X_HIVFnXj1w8X-74" target="kU64lX1X_HIVFnXj1w8X-49" edge="1">
          <mxGeometry relative="1" as="geometry" />
        </mxCell>
        <mxCell id="kU64lX1X_HIVFnXj1w8X-74" value="Edit&lt;div&gt;Password&lt;/div&gt;" style="rounded=1;whiteSpace=wrap;html=1;" parent="WIyWlLk6GJQsqaUBKTNV-1" vertex="1">
          <mxGeometry x="397.78999999999996" y="660" width="80.25" height="40" as="geometry" />
        </mxCell>
        <mxCell id="kU64lX1X_HIVFnXj1w8X-88" value="" style="edgeStyle=elbowEdgeStyle;rounded=0;orthogonalLoop=1;jettySize=auto;html=1;dashed=1;endArrow=none;endFill=0;" parent="WIyWlLk6GJQsqaUBKTNV-1" source="kU64lX1X_HIVFnXj1w8X-75" edge="1">
          <mxGeometry relative="1" as="geometry">
            <mxPoint x="583.25" y="640" as="targetPoint" />
          </mxGeometry>
        </mxCell>
        <mxCell id="oHZwISHsFdIdbKGNgW1y-11" value="" style="edgeStyle=orthogonalEdgeStyle;rounded=0;orthogonalLoop=1;jettySize=auto;html=1;" parent="WIyWlLk6GJQsqaUBKTNV-1" source="kU64lX1X_HIVFnXj1w8X-75" target="oHZwISHsFdIdbKGNgW1y-10" edge="1">
          <mxGeometry relative="1" as="geometry" />
        </mxCell>
        <mxCell id="kU64lX1X_HIVFnXj1w8X-75" value="Delete&lt;div&gt;Password&lt;/div&gt;" style="rounded=1;whiteSpace=wrap;html=1;" parent="WIyWlLk6GJQsqaUBKTNV-1" vertex="1">
          <mxGeometry x="543.0400000000001" y="660" width="80.25" height="40" as="geometry" />
        </mxCell>
        <mxCell id="kU64lX1X_HIVFnXj1w8X-89" value="" style="edgeStyle=elbowEdgeStyle;rounded=0;orthogonalLoop=1;jettySize=auto;html=1;dashed=1;endArrow=none;endFill=0;" parent="WIyWlLk6GJQsqaUBKTNV-1" source="kU64lX1X_HIVFnXj1w8X-76" target="kU64lX1X_HIVFnXj1w8X-49" edge="1">
          <mxGeometry relative="1" as="geometry" />
        </mxCell>
        <mxCell id="kU64lX1X_HIVFnXj1w8X-76" value="&lt;div&gt;Decrypt&lt;/div&gt;&lt;div&gt;Password&lt;/div&gt;" style="rounded=1;whiteSpace=wrap;html=1;" parent="WIyWlLk6GJQsqaUBKTNV-1" vertex="1">
          <mxGeometry x="710.0000000000001" y="660" width="80.25" height="40" as="geometry" />
        </mxCell>
        <mxCell id="kU64lX1X_HIVFnXj1w8X-90" value="" style="edgeStyle=elbowEdgeStyle;rounded=0;orthogonalLoop=1;jettySize=auto;html=1;dashed=1;endArrow=none;endFill=0;" parent="WIyWlLk6GJQsqaUBKTNV-1" source="kU64lX1X_HIVFnXj1w8X-77" edge="1">
          <mxGeometry relative="1" as="geometry">
            <mxPoint x="884.3813043478262" y="640" as="targetPoint" />
          </mxGeometry>
        </mxCell>
        <mxCell id="kU64lX1X_HIVFnXj1w8X-77" value="&lt;div&gt;Edit&lt;/div&gt;&lt;div&gt;Master&lt;/div&gt;" style="rounded=1;whiteSpace=wrap;html=1;" parent="WIyWlLk6GJQsqaUBKTNV-1" vertex="1">
          <mxGeometry x="843.99" y="660" width="80.25" height="40" as="geometry" />
        </mxCell>
        <mxCell id="kU64lX1X_HIVFnXj1w8X-91" value="" style="edgeStyle=elbowEdgeStyle;rounded=0;orthogonalLoop=1;jettySize=auto;html=1;dashed=1;endArrow=none;endFill=0;" parent="WIyWlLk6GJQsqaUBKTNV-1" source="kU64lX1X_HIVFnXj1w8X-78" edge="1">
          <mxGeometry relative="1" as="geometry">
            <mxPoint x="978.294347826087" y="640" as="targetPoint" />
          </mxGeometry>
        </mxCell>
        <mxCell id="kU64lX1X_HIVFnXj1w8X-78" value="&lt;div&gt;Exit&lt;/div&gt;" style="rounded=1;whiteSpace=wrap;html=1;" parent="WIyWlLk6GJQsqaUBKTNV-1" vertex="1">
          <mxGeometry x="948.23" y="660" width="60" height="40" as="geometry" />
        </mxCell>
        <mxCell id="kU64lX1X_HIVFnXj1w8X-80" value="Exit" style="rhombus;whiteSpace=wrap;html=1;shadow=0;fontFamily=Helvetica;fontSize=12;align=center;strokeWidth=1;spacing=6;spacingTop=-4;" parent="WIyWlLk6GJQsqaUBKTNV-1" vertex="1">
          <mxGeometry x="951.8600000000001" y="720" width="52.75" height="50" as="geometry" />
        </mxCell>
        <mxCell id="kU64lX1X_HIVFnXj1w8X-82" value="" style="edgeStyle=orthogonalEdgeStyle;rounded=0;orthogonalLoop=1;jettySize=auto;html=1;entryX=0.5;entryY=0;entryDx=0;entryDy=0;" parent="WIyWlLk6GJQsqaUBKTNV-1" target="kU64lX1X_HIVFnXj1w8X-80" edge="1">
          <mxGeometry relative="1" as="geometry">
            <mxPoint x="978.23" y="700" as="sourcePoint" />
            <mxPoint x="898.23" y="570" as="targetPoint" />
          </mxGeometry>
        </mxCell>
        <mxCell id="kU64lX1X_HIVFnXj1w8X-99" value="" style="endArrow=block;html=1;rounded=0;endFill=0;fillColor=#1ba1e2;strokeColor=#006EAF;exitX=1.017;exitY=0.047;exitDx=0;exitDy=0;exitPerimeter=0;" parent="WIyWlLk6GJQsqaUBKTNV-1" source="kU64lX1X_HIVFnXj1w8X-8" target="WIyWlLk6GJQsqaUBKTNV-6" edge="1">
          <mxGeometry width="50" height="50" relative="1" as="geometry">
            <mxPoint x="438.25" y="170" as="sourcePoint" />
            <mxPoint x="588.75" y="210" as="targetPoint" />
            <Array as="points">
              <mxPoint x="500" y="150" />
              <mxPoint x="500" y="210" />
              <mxPoint x="580" y="210" />
            </Array>
          </mxGeometry>
        </mxCell>
        <mxCell id="kU64lX1X_HIVFnXj1w8X-100" value="" style="endArrow=block;html=1;rounded=0;endFill=0;fillColor=#1ba1e2;strokeColor=#006EAF;" parent="WIyWlLk6GJQsqaUBKTNV-1" target="kU64lX1X_HIVFnXj1w8X-31" edge="1">
          <mxGeometry width="50" height="50" relative="1" as="geometry">
            <mxPoint x="500" y="210" as="sourcePoint" />
            <mxPoint x="550" y="410" as="targetPoint" />
            <Array as="points">
              <mxPoint x="500" y="410" />
              <mxPoint x="570" y="410" />
            </Array>
          </mxGeometry>
        </mxCell>
        <mxCell id="kU64lX1X_HIVFnXj1w8X-101" value="" style="endArrow=block;html=1;rounded=0;endFill=0;fillColor=#1ba1e2;strokeColor=#006EAF;" parent="WIyWlLk6GJQsqaUBKTNV-1" target="kU64lX1X_HIVFnXj1w8X-38" edge="1">
          <mxGeometry width="50" height="50" relative="1" as="geometry">
            <mxPoint x="500" y="410" as="sourcePoint" />
            <mxPoint x="560" y="540" as="targetPoint" />
            <Array as="points">
              <mxPoint x="500" y="530" />
              <mxPoint x="580" y="530" />
            </Array>
          </mxGeometry>
        </mxCell>
        <mxCell id="kU64lX1X_HIVFnXj1w8X-102" value="All fields&lt;div&gt;entered?&lt;/div&gt;" style="rhombus;whiteSpace=wrap;html=1;shadow=0;fontFamily=Helvetica;fontSize=12;align=center;strokeWidth=1;spacing=6;spacingTop=-4;" parent="WIyWlLk6GJQsqaUBKTNV-1" vertex="1">
          <mxGeometry x="257.74999999999994" y="720" width="80.25" height="80" as="geometry" />
        </mxCell>
        <mxCell id="kU64lX1X_HIVFnXj1w8X-107" value="Yes" style="rounded=0;html=1;jettySize=auto;orthogonalLoop=1;fontSize=11;endArrow=none;endFill=0;endSize=8;strokeWidth=1;shadow=0;labelBackgroundColor=none;edgeStyle=orthogonalEdgeStyle;exitX=0;exitY=0.5;exitDx=0;exitDy=0;" parent="WIyWlLk6GJQsqaUBKTNV-1" source="kU64lX1X_HIVFnXj1w8X-102" edge="1">
          <mxGeometry x="-0.8467" y="-10" relative="1" as="geometry">
            <mxPoint as="offset" />
            <mxPoint x="229.90999999999997" y="630" as="sourcePoint" />
            <mxPoint x="297.78999999999996" y="810" as="targetPoint" />
            <Array as="points">
              <mxPoint x="237.78999999999996" y="760" />
              <mxPoint x="237.78999999999996" y="810" />
            </Array>
          </mxGeometry>
        </mxCell>
        <mxCell id="kU64lX1X_HIVFnXj1w8X-112" value="" style="endArrow=none;html=1;rounded=0;entryX=0.75;entryY=1;entryDx=0;entryDy=0;fillColor=#fa6800;strokeColor=#C73500;startArrow=none;startFill=0;" parent="WIyWlLk6GJQsqaUBKTNV-1" edge="1">
          <mxGeometry width="50" height="50" relative="1" as="geometry">
            <mxPoint x="490" y="430" as="sourcePoint" />
            <mxPoint x="775.7000000000003" y="190" as="targetPoint" />
            <Array as="points">
              <mxPoint x="490" y="300" />
              <mxPoint x="776" y="300" />
            </Array>
          </mxGeometry>
        </mxCell>
        <mxCell id="kU64lX1X_HIVFnXj1w8X-113" value="" style="endArrow=none;html=1;rounded=0;fillColor=#fa6800;strokeColor=#C73500;startArrow=block;startFill=0;exitX=0.472;exitY=1.071;exitDx=0;exitDy=0;exitPerimeter=0;" parent="WIyWlLk6GJQsqaUBKTNV-1" source="kU64lX1X_HIVFnXj1w8X-23" edge="1">
          <mxGeometry width="50" height="50" relative="1" as="geometry">
            <mxPoint x="370" y="380" as="sourcePoint" />
            <mxPoint x="740" y="370" as="targetPoint" />
            <Array as="points">
              <mxPoint x="370" y="430" />
              <mxPoint x="740" y="430" />
            </Array>
          </mxGeometry>
        </mxCell>
        <mxCell id="kU64lX1X_HIVFnXj1w8X-116" value="Try Again?" style="rounded=1;whiteSpace=wrap;html=1;" parent="WIyWlLk6GJQsqaUBKTNV-1" vertex="1">
          <mxGeometry x="257.74999999999994" y="830" width="80.25" height="40" as="geometry" />
        </mxCell>
        <mxCell id="kU64lX1X_HIVFnXj1w8X-124" value="Yes" style="edgeStyle=orthogonalEdgeStyle;rounded=0;html=1;jettySize=auto;orthogonalLoop=1;fontSize=11;endArrow=classic;endFill=1;endSize=8;strokeWidth=1;shadow=0;labelBackgroundColor=none;exitX=0;exitY=0.5;exitDx=0;exitDy=0;" parent="WIyWlLk6GJQsqaUBKTNV-1" edge="1">
          <mxGeometry x="-0.8825" y="10" relative="1" as="geometry">
            <mxPoint as="offset" />
            <mxPoint x="255.74999999999994" y="850" as="sourcePoint" />
            <mxPoint x="257.74999999999994" y="680" as="targetPoint" />
            <Array as="points">
              <mxPoint x="220" y="850" />
              <mxPoint x="220" y="680" />
            </Array>
          </mxGeometry>
        </mxCell>
        <mxCell id="kU64lX1X_HIVFnXj1w8X-128" value="No" style="rounded=0;html=1;jettySize=auto;orthogonalLoop=1;fontSize=11;endArrow=classic;endFill=1;endSize=8;strokeWidth=1;shadow=0;labelBackgroundColor=none;edgeStyle=orthogonalEdgeStyle;" parent="WIyWlLk6GJQsqaUBKTNV-1" edge="1">
          <mxGeometry x="-0.9884" y="20" relative="1" as="geometry">
            <mxPoint as="offset" />
            <mxPoint x="297.73999999999995" y="800" as="sourcePoint" />
            <mxPoint x="297.99999999999994" y="830" as="targetPoint" />
            <Array as="points">
              <mxPoint x="297.99999999999994" y="800" />
            </Array>
          </mxGeometry>
        </mxCell>
        <mxCell id="kU64lX1X_HIVFnXj1w8X-129" value="" style="edgeStyle=elbowEdgeStyle;rounded=0;orthogonalLoop=1;jettySize=auto;html=1;" parent="WIyWlLk6GJQsqaUBKTNV-1" target="kU64lX1X_HIVFnXj1w8X-130" edge="1">
          <mxGeometry relative="1" as="geometry">
            <mxPoint x="883.99" y="700" as="sourcePoint" />
          </mxGeometry>
        </mxCell>
        <mxCell id="kU64lX1X_HIVFnXj1w8X-130" value="All fields&lt;div&gt;entered?&lt;/div&gt;" style="rhombus;whiteSpace=wrap;html=1;shadow=0;fontFamily=Helvetica;fontSize=12;align=center;strokeWidth=1;spacing=6;spacingTop=-4;" parent="WIyWlLk6GJQsqaUBKTNV-1" vertex="1">
          <mxGeometry x="843.99" y="720" width="80.25" height="80" as="geometry" />
        </mxCell>
        <mxCell id="kU64lX1X_HIVFnXj1w8X-132" value="Try Again?" style="rounded=1;whiteSpace=wrap;html=1;" parent="WIyWlLk6GJQsqaUBKTNV-1" vertex="1">
          <mxGeometry x="843.99" y="830" width="80.25" height="40" as="geometry" />
        </mxCell>
        <mxCell id="kU64lX1X_HIVFnXj1w8X-135" value="Yes" style="edgeStyle=orthogonalEdgeStyle;rounded=0;html=1;jettySize=auto;orthogonalLoop=1;fontSize=11;endArrow=classic;endFill=1;endSize=8;strokeWidth=1;shadow=0;labelBackgroundColor=none;exitX=1;exitY=0.5;exitDx=0;exitDy=0;entryX=1;entryY=0.5;entryDx=0;entryDy=0;" parent="WIyWlLk6GJQsqaUBKTNV-1" source="kU64lX1X_HIVFnXj1w8X-132" target="kU64lX1X_HIVFnXj1w8X-77" edge="1">
          <mxGeometry x="-0.8457" y="-10" relative="1" as="geometry">
            <mxPoint x="-10" y="10" as="offset" />
            <mxPoint x="1007.73" y="850" as="sourcePoint" />
            <mxPoint x="1009.73" y="680" as="targetPoint" />
            <Array as="points">
              <mxPoint x="939.74" y="850" />
              <mxPoint x="939.74" y="680" />
            </Array>
          </mxGeometry>
        </mxCell>
        <mxCell id="kU64lX1X_HIVFnXj1w8X-136" value="No" style="rounded=0;html=1;jettySize=auto;orthogonalLoop=1;fontSize=11;endArrow=classic;endFill=1;endSize=8;strokeWidth=1;shadow=0;labelBackgroundColor=none;edgeStyle=orthogonalEdgeStyle;" parent="WIyWlLk6GJQsqaUBKTNV-1" edge="1">
          <mxGeometry x="-0.9884" y="20" relative="1" as="geometry">
            <mxPoint as="offset" />
            <mxPoint x="883.98" y="800" as="sourcePoint" />
            <mxPoint x="884.24" y="830" as="targetPoint" />
            <Array as="points">
              <mxPoint x="884.24" y="800" />
            </Array>
          </mxGeometry>
        </mxCell>
        <mxCell id="oHZwISHsFdIdbKGNgW1y-3" value="" style="endArrow=block;html=1;rounded=0;fillColor=#fa6800;strokeColor=#C73500;endFill=0;startArrow=none;startFill=0;entryX=0.319;entryY=1.167;entryDx=0;entryDy=0;entryPerimeter=0;" parent="WIyWlLk6GJQsqaUBKTNV-1" target="kU64lX1X_HIVFnXj1w8X-26" edge="1">
          <mxGeometry width="50" height="50" relative="1" as="geometry">
            <mxPoint x="240" y="760" as="sourcePoint" />
            <mxPoint x="227.85000000000002" y="351.05" as="targetPoint" />
            <Array as="points">
              <mxPoint x="200" y="760" />
            </Array>
          </mxGeometry>
        </mxCell>
        <mxCell id="vOvHCYOqFdmL3Q4cGMV2-24" value="Encrypted" style="edgeLabel;html=1;align=center;verticalAlign=middle;resizable=0;points=[];rotation=-90;" parent="oHZwISHsFdIdbKGNgW1y-3" vertex="1" connectable="0">
          <mxGeometry x="0.327" y="-1" relative="1" as="geometry">
            <mxPoint x="-1" y="-105" as="offset" />
          </mxGeometry>
        </mxCell>
        <mxCell id="oHZwISHsFdIdbKGNgW1y-7" value="No" style="rounded=0;html=1;jettySize=auto;orthogonalLoop=1;fontSize=11;endArrow=classic;endFill=1;endSize=8;strokeWidth=1;shadow=0;labelBackgroundColor=none;edgeStyle=orthogonalEdgeStyle;exitX=1;exitY=0.5;exitDx=0;exitDy=0;entryX=0.148;entryY=0.983;entryDx=0;entryDy=0;entryPerimeter=0;" parent="WIyWlLk6GJQsqaUBKTNV-1" source="kU64lX1X_HIVFnXj1w8X-116" target="kU64lX1X_HIVFnXj1w8X-49" edge="1">
          <mxGeometry x="-0.8924" y="-10" relative="1" as="geometry">
            <mxPoint x="-10" y="10" as="offset" />
            <mxPoint x="397.78999999999996" y="835" as="sourcePoint" />
            <mxPoint x="350" y="650" as="targetPoint" />
            <Array as="points">
              <mxPoint x="350" y="850" />
              <mxPoint x="350" y="639" />
            </Array>
          </mxGeometry>
        </mxCell>
        <mxCell id="oHZwISHsFdIdbKGNgW1y-8" value="No" style="rounded=0;html=1;jettySize=auto;orthogonalLoop=1;fontSize=11;endArrow=classic;endFill=1;endSize=8;strokeWidth=1;shadow=0;labelBackgroundColor=none;edgeStyle=orthogonalEdgeStyle;exitX=0;exitY=0.5;exitDx=0;exitDy=0;" parent="WIyWlLk6GJQsqaUBKTNV-1" source="kU64lX1X_HIVFnXj1w8X-132" edge="1">
          <mxGeometry x="-0.8839" y="10" relative="1" as="geometry">
            <mxPoint as="offset" />
            <mxPoint x="803.99" y="850" as="sourcePoint" />
            <mxPoint x="820.44" y="640" as="targetPoint" />
            <Array as="points">
              <mxPoint x="820.44" y="850" />
              <mxPoint x="820.44" y="640" />
            </Array>
          </mxGeometry>
        </mxCell>
        <mxCell id="oHZwISHsFdIdbKGNgW1y-10" value="Does a&lt;div&gt;password&lt;/div&gt;&lt;div&gt;exist?&lt;/div&gt;" style="rhombus;whiteSpace=wrap;html=1;shadow=0;fontFamily=Helvetica;fontSize=12;align=center;strokeWidth=1;spacing=6;spacingTop=-4;" parent="WIyWlLk6GJQsqaUBKTNV-1" vertex="1">
          <mxGeometry x="533.17" y="730" width="100" height="80" as="geometry" />
        </mxCell>
        <mxCell id="oHZwISHsFdIdbKGNgW1y-17" value="" style="endArrow=none;html=1;rounded=0;exitX=0.523;exitY=1.012;exitDx=0;exitDy=0;exitPerimeter=0;entryX=0.5;entryY=1;entryDx=0;entryDy=0;" parent="WIyWlLk6GJQsqaUBKTNV-1" source="kU64lX1X_HIVFnXj1w8X-74" target="kU64lX1X_HIVFnXj1w8X-76" edge="1">
          <mxGeometry width="50" height="50" relative="1" as="geometry">
            <mxPoint x="432.92" y="760" as="sourcePoint" />
            <mxPoint x="730" y="700" as="targetPoint" />
            <Array as="points">
              <mxPoint x="440" y="710" />
              <mxPoint x="750" y="710" />
            </Array>
          </mxGeometry>
        </mxCell>
        <mxCell id="oHZwISHsFdIdbKGNgW1y-19" value="No" style="rounded=0;html=1;jettySize=auto;orthogonalLoop=1;fontSize=11;endArrow=classic;endFill=1;endSize=8;strokeWidth=1;shadow=0;labelBackgroundColor=none;edgeStyle=orthogonalEdgeStyle;" parent="WIyWlLk6GJQsqaUBKTNV-1" edge="1">
          <mxGeometry x="-0.9199" y="-10" relative="1" as="geometry">
            <mxPoint as="offset" />
            <mxPoint x="633" y="770" as="sourcePoint" />
            <mxPoint x="645" y="640" as="targetPoint" />
            <Array as="points">
              <mxPoint x="645" y="770" />
              <mxPoint x="645" y="640" />
            </Array>
          </mxGeometry>
        </mxCell>
        <mxCell id="vOvHCYOqFdmL3Q4cGMV2-0" value="List&lt;br&gt;Passwords" style="rounded=1;whiteSpace=wrap;html=1;" parent="WIyWlLk6GJQsqaUBKTNV-1" vertex="1">
          <mxGeometry x="543.04" y="830" width="80.25" height="40" as="geometry" />
        </mxCell>
        <mxCell id="vOvHCYOqFdmL3Q4cGMV2-1" value="Yes" style="rounded=0;html=1;jettySize=auto;orthogonalLoop=1;fontSize=11;endArrow=classic;endFill=1;endSize=8;strokeWidth=1;shadow=0;labelBackgroundColor=none;edgeStyle=orthogonalEdgeStyle;" parent="WIyWlLk6GJQsqaUBKTNV-1" edge="1">
          <mxGeometry x="-0.3207" y="22" relative="1" as="geometry">
            <mxPoint as="offset" />
            <mxPoint x="583.03" y="810" as="sourcePoint" />
            <mxPoint x="583" y="830" as="targetPoint" />
            <Array as="points">
              <mxPoint x="583.29" y="810" />
            </Array>
          </mxGeometry>
        </mxCell>
        <mxCell id="vOvHCYOqFdmL3Q4cGMV2-6" value="" style="edgeStyle=elbowEdgeStyle;rounded=0;orthogonalLoop=1;jettySize=auto;html=1;dashed=1;endArrow=none;endFill=0;entryX=0;entryY=0.5;entryDx=0;entryDy=0;" parent="WIyWlLk6GJQsqaUBKTNV-1" source="vOvHCYOqFdmL3Q4cGMV2-7" target="vOvHCYOqFdmL3Q4cGMV2-0" edge="1">
          <mxGeometry relative="1" as="geometry">
            <mxPoint x="530" y="850" as="targetPoint" />
            <Array as="points">
              <mxPoint x="438" y="850" />
            </Array>
          </mxGeometry>
        </mxCell>
        <mxCell id="vOvHCYOqFdmL3Q4cGMV2-7" value="Edit&lt;div&gt;Password&lt;/div&gt;" style="rounded=1;whiteSpace=wrap;html=1;" parent="WIyWlLk6GJQsqaUBKTNV-1" vertex="1">
          <mxGeometry x="397.78999999999996" y="890" width="80.25" height="40" as="geometry" />
        </mxCell>
        <mxCell id="vOvHCYOqFdmL3Q4cGMV2-8" value="" style="edgeStyle=elbowEdgeStyle;rounded=0;orthogonalLoop=1;jettySize=auto;html=1;dashed=1;endArrow=none;endFill=0;" parent="WIyWlLk6GJQsqaUBKTNV-1" source="vOvHCYOqFdmL3Q4cGMV2-9" edge="1">
          <mxGeometry relative="1" as="geometry">
            <mxPoint x="583" y="870" as="targetPoint" />
          </mxGeometry>
        </mxCell>
        <mxCell id="vOvHCYOqFdmL3Q4cGMV2-35" value="" style="edgeStyle=orthogonalEdgeStyle;rounded=0;orthogonalLoop=1;jettySize=auto;html=1;" parent="WIyWlLk6GJQsqaUBKTNV-1" source="vOvHCYOqFdmL3Q4cGMV2-9" target="vOvHCYOqFdmL3Q4cGMV2-31" edge="1">
          <mxGeometry relative="1" as="geometry" />
        </mxCell>
        <mxCell id="vOvHCYOqFdmL3Q4cGMV2-9" value="Delete&lt;div&gt;Password&lt;/div&gt;" style="rounded=1;whiteSpace=wrap;html=1;" parent="WIyWlLk6GJQsqaUBKTNV-1" vertex="1">
          <mxGeometry x="543.0400000000001" y="890" width="80.25" height="40" as="geometry" />
        </mxCell>
        <mxCell id="vOvHCYOqFdmL3Q4cGMV2-10" value="" style="edgeStyle=elbowEdgeStyle;rounded=0;orthogonalLoop=1;jettySize=auto;html=1;dashed=1;endArrow=none;endFill=0;entryX=1;entryY=0.5;entryDx=0;entryDy=0;exitX=0.5;exitY=0;exitDx=0;exitDy=0;" parent="WIyWlLk6GJQsqaUBKTNV-1" source="vOvHCYOqFdmL3Q4cGMV2-11" target="vOvHCYOqFdmL3Q4cGMV2-0" edge="1">
          <mxGeometry relative="1" as="geometry">
            <mxPoint x="620" y="850" as="targetPoint" />
            <mxPoint x="750" y="887" as="sourcePoint" />
            <Array as="points">
              <mxPoint x="750" y="870" />
            </Array>
          </mxGeometry>
        </mxCell>
        <mxCell id="9grA41xExo2nog3lk7L1-3" value="Decrypted" style="edgeLabel;html=1;align=center;verticalAlign=middle;resizable=0;points=[];rotation=-90;" parent="vOvHCYOqFdmL3Q4cGMV2-10" vertex="1" connectable="0">
          <mxGeometry x="-0.6615" y="-1" relative="1" as="geometry">
            <mxPoint x="-1" y="-10" as="offset" />
          </mxGeometry>
        </mxCell>
        <mxCell id="vOvHCYOqFdmL3Q4cGMV2-28" value="" style="edgeStyle=orthogonalEdgeStyle;rounded=0;orthogonalLoop=1;jettySize=auto;html=1;" parent="WIyWlLk6GJQsqaUBKTNV-1" source="vOvHCYOqFdmL3Q4cGMV2-11" target="vOvHCYOqFdmL3Q4cGMV2-25" edge="1">
          <mxGeometry relative="1" as="geometry" />
        </mxCell>
        <mxCell id="vOvHCYOqFdmL3Q4cGMV2-11" value="&lt;div&gt;Decrypt&lt;/div&gt;&lt;div&gt;Password&lt;/div&gt;" style="rounded=1;whiteSpace=wrap;html=1;" parent="WIyWlLk6GJQsqaUBKTNV-1" vertex="1">
          <mxGeometry x="710.0000000000001" y="948" width="80.25" height="40" as="geometry" />
        </mxCell>
        <mxCell id="vOvHCYOqFdmL3Q4cGMV2-13" value="" style="edgeStyle=elbowEdgeStyle;rounded=0;orthogonalLoop=1;jettySize=auto;html=1;" parent="WIyWlLk6GJQsqaUBKTNV-1" edge="1">
          <mxGeometry relative="1" as="geometry">
            <mxPoint x="438" y="930" as="sourcePoint" />
            <mxPoint x="437.66666666666674" y="948.207684319834" as="targetPoint" />
          </mxGeometry>
        </mxCell>
        <mxCell id="vOvHCYOqFdmL3Q4cGMV2-22" value="" style="edgeStyle=orthogonalEdgeStyle;rounded=0;orthogonalLoop=1;jettySize=auto;html=1;" parent="WIyWlLk6GJQsqaUBKTNV-1" source="vOvHCYOqFdmL3Q4cGMV2-14" target="vOvHCYOqFdmL3Q4cGMV2-16" edge="1">
          <mxGeometry relative="1" as="geometry" />
        </mxCell>
        <mxCell id="vOvHCYOqFdmL3Q4cGMV2-14" value="All fields&lt;div&gt;entered?&lt;/div&gt;" style="rhombus;whiteSpace=wrap;html=1;shadow=0;fontFamily=Helvetica;fontSize=12;align=center;strokeWidth=1;spacing=6;spacingTop=-4;" parent="WIyWlLk6GJQsqaUBKTNV-1" vertex="1">
          <mxGeometry x="397.78999999999996" y="948" width="80.25" height="80" as="geometry" />
        </mxCell>
        <mxCell id="vOvHCYOqFdmL3Q4cGMV2-15" value="Yes" style="rounded=0;html=1;jettySize=auto;orthogonalLoop=1;fontSize=11;endArrow=none;endFill=0;endSize=8;strokeWidth=1;shadow=0;labelBackgroundColor=none;edgeStyle=orthogonalEdgeStyle;exitX=0;exitY=0.5;exitDx=0;exitDy=0;" parent="WIyWlLk6GJQsqaUBKTNV-1" edge="1">
          <mxGeometry x="-0.8467" y="-10" relative="1" as="geometry">
            <mxPoint as="offset" />
            <mxPoint x="397.75" y="988" as="sourcePoint" />
            <mxPoint x="437.78999999999996" y="1038" as="targetPoint" />
            <Array as="points">
              <mxPoint x="377.78999999999996" y="988" />
              <mxPoint x="377.78999999999996" y="1038" />
            </Array>
          </mxGeometry>
        </mxCell>
        <mxCell id="vOvHCYOqFdmL3Q4cGMV2-16" value="Try Again?" style="rounded=1;whiteSpace=wrap;html=1;" parent="WIyWlLk6GJQsqaUBKTNV-1" vertex="1">
          <mxGeometry x="397.74999999999994" y="1058" width="80.25" height="40" as="geometry" />
        </mxCell>
        <mxCell id="vOvHCYOqFdmL3Q4cGMV2-17" value="No" style="edgeStyle=orthogonalEdgeStyle;rounded=0;html=1;jettySize=auto;orthogonalLoop=1;fontSize=11;endArrow=classic;endFill=1;endSize=8;strokeWidth=1;shadow=0;labelBackgroundColor=none;exitX=0;exitY=0.5;exitDx=0;exitDy=0;" parent="WIyWlLk6GJQsqaUBKTNV-1" edge="1">
          <mxGeometry x="-0.9374" y="12" relative="1" as="geometry">
            <mxPoint as="offset" />
            <mxPoint x="395.74999999999994" y="1078" as="sourcePoint" />
            <mxPoint x="370" y="640" as="targetPoint" />
            <Array as="points">
              <mxPoint x="370" y="1078" />
              <mxPoint x="370" y="641" />
            </Array>
          </mxGeometry>
        </mxCell>
        <mxCell id="vOvHCYOqFdmL3Q4cGMV2-18" value="No" style="rounded=0;html=1;jettySize=auto;orthogonalLoop=1;fontSize=11;endArrow=classic;endFill=1;endSize=8;strokeWidth=1;shadow=0;labelBackgroundColor=none;edgeStyle=orthogonalEdgeStyle;" parent="WIyWlLk6GJQsqaUBKTNV-1" edge="1">
          <mxGeometry x="-0.8538" y="22" relative="1" as="geometry">
            <mxPoint as="offset" />
            <mxPoint x="437.73999999999995" y="1028" as="sourcePoint" />
            <mxPoint x="437.99999999999994" y="1058" as="targetPoint" />
            <Array as="points">
              <mxPoint x="437.99999999999994" y="1028" />
            </Array>
          </mxGeometry>
        </mxCell>
        <mxCell id="vOvHCYOqFdmL3Q4cGMV2-19" value="" style="endArrow=none;html=1;rounded=0;fillColor=#fa6800;strokeColor=#C73500;endFill=0;startArrow=none;startFill=0;" parent="WIyWlLk6GJQsqaUBKTNV-1" edge="1">
          <mxGeometry width="50" height="50" relative="1" as="geometry">
            <mxPoint x="380" y="988" as="sourcePoint" />
            <mxPoint x="200" y="760" as="targetPoint" />
            <Array as="points">
              <mxPoint x="200" y="990" />
            </Array>
          </mxGeometry>
        </mxCell>
        <mxCell id="vOvHCYOqFdmL3Q4cGMV2-20" value="Yes" style="rounded=0;html=1;jettySize=auto;orthogonalLoop=1;fontSize=11;endArrow=classic;endFill=1;endSize=8;strokeWidth=1;shadow=0;labelBackgroundColor=none;edgeStyle=orthogonalEdgeStyle;exitX=1;exitY=0.5;exitDx=0;exitDy=0;entryX=1;entryY=0.5;entryDx=0;entryDy=0;" parent="WIyWlLk6GJQsqaUBKTNV-1" source="vOvHCYOqFdmL3Q4cGMV2-16" target="kU64lX1X_HIVFnXj1w8X-74" edge="1">
          <mxGeometry x="-0.9087" y="-12" relative="1" as="geometry">
            <mxPoint x="-12" y="12" as="offset" />
            <mxPoint x="507.78999999999996" y="1063" as="sourcePoint" />
            <mxPoint x="498" y="868" as="targetPoint" />
            <Array as="points">
              <mxPoint x="498" y="1078" />
              <mxPoint x="498" y="680" />
            </Array>
          </mxGeometry>
        </mxCell>
        <mxCell id="vOvHCYOqFdmL3Q4cGMV2-26" value="No" style="edgeStyle=orthogonalEdgeStyle;rounded=0;html=1;jettySize=auto;orthogonalLoop=1;fontSize=11;endArrow=classic;endFill=1;endSize=8;strokeWidth=1;shadow=0;labelBackgroundColor=none;exitX=0;exitY=0.5;exitDx=0;exitDy=0;" parent="WIyWlLk6GJQsqaUBKTNV-1" source="vOvHCYOqFdmL3Q4cGMV2-25" edge="1">
          <mxGeometry x="-0.8869" y="10" relative="1" as="geometry">
            <mxPoint as="offset" />
            <mxPoint x="710" y="970" as="sourcePoint" />
            <mxPoint x="686.12" y="640" as="targetPoint" />
            <Array as="points">
              <mxPoint x="710" y="1050" />
              <mxPoint x="686" y="1050" />
            </Array>
          </mxGeometry>
        </mxCell>
        <mxCell id="vOvHCYOqFdmL3Q4cGMV2-27" value="Yes" style="rounded=0;html=1;jettySize=auto;orthogonalLoop=1;fontSize=11;endArrow=classic;endFill=1;endSize=8;strokeWidth=1;shadow=0;labelBackgroundColor=none;edgeStyle=orthogonalEdgeStyle;exitX=1;exitY=0.5;exitDx=0;exitDy=0;entryX=1;entryY=0.5;entryDx=0;entryDy=0;" parent="WIyWlLk6GJQsqaUBKTNV-1" source="vOvHCYOqFdmL3Q4cGMV2-25" edge="1">
          <mxGeometry x="-0.904" y="-12" relative="1" as="geometry">
            <mxPoint as="offset" />
            <mxPoint x="823.91" y="1063" as="sourcePoint" />
            <mxPoint x="794.12" y="680" as="targetPoint" />
            <Array as="points">
              <mxPoint x="814" y="1048" />
              <mxPoint x="814" y="680" />
            </Array>
          </mxGeometry>
        </mxCell>
        <mxCell id="vOvHCYOqFdmL3Q4cGMV2-31" value="Try Again?" style="rounded=1;whiteSpace=wrap;html=1;" parent="WIyWlLk6GJQsqaUBKTNV-1" vertex="1">
          <mxGeometry x="543.0399999999998" y="948" width="80.25" height="40" as="geometry" />
        </mxCell>
        <mxCell id="vOvHCYOqFdmL3Q4cGMV2-32" value="No" style="edgeStyle=orthogonalEdgeStyle;rounded=0;html=1;jettySize=auto;orthogonalLoop=1;fontSize=11;endArrow=classic;endFill=1;endSize=8;strokeWidth=1;shadow=0;labelBackgroundColor=none;exitX=1;exitY=0.5;exitDx=0;exitDy=0;" parent="WIyWlLk6GJQsqaUBKTNV-1" source="vOvHCYOqFdmL3Q4cGMV2-31" edge="1">
          <mxGeometry x="-0.8986" y="-10" relative="1" as="geometry">
            <mxPoint as="offset" />
            <mxPoint x="625" y="970" as="sourcePoint" />
            <mxPoint x="660" y="640" as="targetPoint" />
            <Array as="points">
              <mxPoint x="623" y="970" />
              <mxPoint x="660" y="970" />
              <mxPoint x="660" y="640" />
            </Array>
          </mxGeometry>
        </mxCell>
        <mxCell id="vOvHCYOqFdmL3Q4cGMV2-33" value="Yes" style="rounded=0;html=1;jettySize=auto;orthogonalLoop=1;fontSize=11;endArrow=classic;endFill=1;endSize=8;strokeWidth=1;shadow=0;labelBackgroundColor=none;edgeStyle=orthogonalEdgeStyle;exitX=0;exitY=0.5;exitDx=0;exitDy=0;entryX=0;entryY=0.5;entryDx=0;entryDy=0;" parent="WIyWlLk6GJQsqaUBKTNV-1" source="vOvHCYOqFdmL3Q4cGMV2-31" target="kU64lX1X_HIVFnXj1w8X-75" edge="1">
          <mxGeometry x="-0.9263" y="12" relative="1" as="geometry">
            <mxPoint as="offset" />
            <mxPoint x="509.5099999999999" y="968" as="sourcePoint" />
            <mxPoint x="513.38" y="680" as="targetPoint" />
            <Array as="points">
              <mxPoint x="510" y="968" />
              <mxPoint x="510" y="680" />
            </Array>
          </mxGeometry>
        </mxCell>
        <mxCell id="vOvHCYOqFdmL3Q4cGMV2-36" value="" style="endArrow=oval;html=1;rounded=0;fillColor=#fa6800;strokeColor=#C73500;endFill=1;startArrow=none;startFill=0;dashed=1;" parent="WIyWlLk6GJQsqaUBKTNV-1" edge="1">
          <mxGeometry width="50" height="50" relative="1" as="geometry">
            <mxPoint x="200" y="1020" as="sourcePoint" />
            <mxPoint x="200" y="760" as="targetPoint" />
            <Array as="points">
              <mxPoint x="180" y="1020" />
              <mxPoint x="180" y="760" />
            </Array>
          </mxGeometry>
        </mxCell>
        <mxCell id="vOvHCYOqFdmL3Q4cGMV2-25" value="Try Again?" style="rounded=1;whiteSpace=wrap;html=1;" parent="WIyWlLk6GJQsqaUBKTNV-1" vertex="1">
          <mxGeometry x="709.9999999999999" y="1028" width="80.25" height="40" as="geometry" />
        </mxCell>
      </root>
    </mxGraphModel>
  </diagram>
</mxfile>
